<svg width="570" height="358" viewBox="0 0 570 358" fill="none" xmlns="http://www.w3.org/2000/svg">
<path d="M357.24 84.691C361.168 82.8089 362.521 77.8682 359.839 74.4366C347.081 58.1173 329.617 44.6851 308.893 35.3257C285.404 24.7174 258.627 19.7484 231.481 20.9604C204.335 22.1724 177.861 29.5188 154.945 42.199C134.691 53.4068 117.903 68.4015 105.972 85.8639C103.523 89.4486 105.225 94.2792 109.282 95.824C112.481 97.042 116.072 95.7595 117.964 92.9069C128.748 76.6435 144.179 62.6888 162.901 52.3291C183.525 40.9169 207.351 34.3052 231.783 33.2144C256.214 32.1236 280.314 36.5957 301.454 46.1431C320.527 54.7567 336.53 67.2031 348.076 82.3413C350.226 85.1606 354.043 86.223 357.24 84.691Z" fill="#920303"/>
<path d="M374.274 236.724C378.445 238.044 380.708 242.572 379.007 246.604C367.434 274.041 347.3 297.607 321.173 314.132C292.706 332.138 258.72 340.774 224.503 338.697C190.286 336.62 157.757 323.947 131.977 302.649C108.306 283.094 91.5441 257.274 83.8083 228.65C82.6727 224.448 85.4784 220.278 89.7575 219.481C93.9013 218.708 97.8793 221.395 98.9933 225.46C106.006 251.052 121.043 274.131 142.23 291.634C165.432 310.802 194.708 322.208 225.503 324.077C256.298 325.946 286.885 318.174 312.506 301.969C335.949 287.142 354.031 266.016 364.461 241.419C366.085 237.59 370.309 235.47 374.274 236.724Z" fill="#920303"/>
<path d="M93.1521 77.9774C91.1575 76.5893 90.6617 73.8431 92.0992 71.8839C112.58 43.9703 140.862 22.6885 173.429 10.7511C205.997 -1.18617 241.333 -3.22323 275.001 4.84245C277.364 5.40859 278.761 7.8247 278.136 10.173C277.511 12.5213 275.101 13.9122 272.737 13.3492C240.816 5.74662 207.328 7.69844 176.458 19.0136C145.588 30.3287 118.771 50.4817 99.3245 76.9123C97.8844 78.8697 95.1467 79.3655 93.1521 77.9774Z" fill="#F5A676"/>
<path d="M394.256 248.99C396.463 249.972 397.475 252.548 396.467 254.743C378.854 293.101 348.415 323.917 310.511 341.639C272.645 359.342 229.876 362.786 189.818 351.448C187.459 350.78 186.142 348.297 186.847 345.949C187.562 343.57 190.08 342.237 192.471 342.909C230.442 353.58 270.955 350.282 306.836 333.507C342.746 316.717 371.604 287.555 388.356 251.254C389.386 249.022 392.011 247.99 394.256 248.99Z" fill="#F5A676"/>
<path d="M17.745 207.493C17.1473 207.546 16.1831 207.54 14.8524 207.475C13.5815 207.406 12.382 207.119 11.2538 206.616C10.1256 206.112 9.50664 205.233 9.39683 203.978C9.32884 203.2 9.45587 202.587 9.77789 202.137C9.99083 201.818 10.2168 201.647 10.4559 201.626C10.695 201.605 10.7679 201.75 10.6745 202.059C10.5736 202.971 10.9755 203.779 11.8803 204.483C12.7903 205.247 13.6742 205.711 14.5319 205.877C15.1401 205.944 15.7158 205.984 16.259 205.997C16.8074 206.07 17.3207 206.085 17.7988 206.043C20.1897 205.834 22.3165 205.015 24.1791 203.588C26.047 202.22 27.6743 200.511 29.061 198.463C30.5127 196.469 31.7825 194.46 32.8704 192.438C34.423 189.531 35.9117 186.239 37.3366 182.561C38.7614 178.883 40.2382 175.11 41.7669 171.242C43.2904 167.314 44.914 163.498 46.6377 159.794C48.4211 156.084 50.4179 152.747 52.628 149.783C54.8329 146.76 57.3343 144.373 60.1324 142.622C61.9562 141.439 63.7348 140.771 65.4682 140.619C66.4245 140.536 67.3017 140.58 68.0996 140.751C68.3439 140.789 68.4168 140.934 68.3182 141.183C68.2793 141.428 68.1377 141.53 67.8934 141.491C67.6439 141.393 67.3697 141.357 67.0708 141.383C66.8317 141.404 66.5627 141.427 66.2639 141.453C63.1558 141.725 60.0734 144.013 57.0168 148.315C54.2822 152.168 52.0792 156.246 50.4077 160.548C48.7311 164.79 47.1221 169.117 45.5807 173.528L45.6703 173.52C46.2942 173.767 46.9752 173.978 47.7134 174.155C50.4166 174.761 53.0831 174.95 55.7131 174.719C58.5821 174.468 61.4093 173.739 64.1947 172.532C66.9801 171.325 69.4598 169.722 71.6341 167.725C73.8681 165.723 75.5925 163.404 76.8074 160.768C78.017 158.072 78.4833 155.14 78.2061 151.972C77.9604 149.163 77.0377 146.534 75.438 144.084C73.8384 141.634 71.5582 139.665 68.5973 138.177C65.5011 136.521 61.8842 135.452 57.7465 134.971C53.6634 134.425 49.4401 134.343 45.0768 134.724C40.056 135.164 35.2253 136.399 30.5847 138.431C25.9987 140.399 22.3369 142.947 19.5994 146.078C18.176 147.708 16.9466 149.833 15.911 152.454C14.93 155.009 14.5467 157.512 14.7611 159.962C14.8081 160.5 14.8851 161.036 14.9919 161.568C15.0988 162.101 15.2654 162.629 15.4917 163.151C16.1761 164.777 17.3047 165.974 18.8774 166.74C20.5099 167.5 22.2526 167.799 24.1055 167.637C24.8826 167.569 25.6518 167.412 26.4131 167.164C27.2342 166.912 28.0228 166.632 28.7789 166.325L28.9583 166.309C29.1376 166.294 29.2351 166.375 29.2508 166.555C29.2717 166.794 29.1379 166.986 28.8495 167.132C27.223 167.816 25.4534 168.242 23.5407 168.409C21.628 168.577 19.7463 168.41 17.8956 167.91C16.0995 167.344 14.5709 166.394 13.3097 165.058C12.1031 163.658 11.3952 161.763 11.186 159.372C11.0239 157.519 11.1113 155.765 11.4483 154.109C11.8451 152.448 12.4316 150.891 13.2079 149.438C14.9189 146.277 17.4839 143.583 20.9028 141.356C24.3763 139.065 28.2529 137.25 32.5326 135.912C36.8668 134.509 41.1857 133.619 45.4892 133.243C49.9123 132.856 54.2121 132.781 58.3887 133.018C62.5652 133.254 66.2378 133.927 69.4064 135.035C73.9917 136.501 77.3713 138.645 79.5455 141.466C81.7742 144.222 83.0298 147.214 83.3121 150.442C83.6364 154.147 83.0599 157.541 81.5828 160.621C80.1004 163.642 78.011 166.264 75.3145 168.487C72.618 170.711 69.6107 172.48 66.2927 173.794C63.0343 175.103 59.7913 175.898 56.5637 176.181C54.9498 176.322 53.3554 176.341 51.7805 176.238C50.2002 176.075 48.6447 175.85 47.1138 175.562C46.8045 175.469 46.4952 175.375 46.1858 175.282C45.9363 175.183 45.6569 175.087 45.3475 174.994C45.2878 174.999 45.228 175.004 45.1682 175.01C45.1032 174.955 45.0408 174.93 44.9811 174.936C43.9171 177.92 42.7907 180.879 41.602 183.814C40.4678 186.684 39.1166 189.482 37.5483 192.209C36.1332 194.622 34.4958 196.903 32.6361 199.053C30.7816 201.263 28.684 203.103 26.3432 204.573C25.026 205.351 23.6359 205.984 22.173 206.474C20.7751 207.017 19.2991 207.357 17.745 207.493ZM100.956 192.624C98.9834 192.797 97.5862 192.317 96.7644 191.184C95.9425 190.052 95.4662 188.738 95.3355 187.244C95.2884 186.706 95.2712 186.165 95.284 185.622C95.3564 185.074 95.4016 184.558 95.4196 184.074C95.3934 183.776 95.405 183.564 95.4543 183.439C94.7169 184.648 93.8106 185.992 92.7354 187.471C91.72 188.945 90.6565 190.213 89.5447 191.274C87.768 192.995 86.1026 193.924 84.5485 194.06C83.114 194.185 81.9234 193.657 80.9768 192.475C80.0847 191.228 79.555 189.648 79.3877 187.736C79.3301 187.078 79.3051 186.448 79.3126 185.845C79.3148 185.182 79.3769 184.514 79.4987 183.841C80.0195 180.844 80.9497 178.053 82.2893 175.466C83.629 172.879 85.3157 170.473 87.3495 168.248C85.8298 169.465 84.4128 170.823 83.0985 172.324C81.8441 173.819 80.6273 175.401 79.4483 177.07C78.2147 178.804 76.902 180.665 75.51 182.654C74.1129 184.583 72.5909 186.463 70.9442 188.294C69.2922 190.064 67.4972 191.577 65.5591 192.83C63.556 194.029 61.3291 194.736 58.8784 194.951C57.5635 195.066 56.1872 194.825 54.7497 194.228C53.3122 193.631 52.5124 192.406 52.3503 190.553C52.2248 189.118 52.5386 187.886 53.2918 186.857C54.0397 185.767 55.0476 184.896 56.3155 184.243C56.6039 184.098 56.9027 184.071 57.2121 184.165C57.4564 184.204 57.4396 184.356 57.1616 184.621C56.1716 185.009 55.395 185.769 54.8316 186.903C54.2033 187.982 53.9361 189.059 54.0303 190.135C54.0878 190.792 54.322 191.404 54.7329 191.971C55.1386 192.477 55.7431 192.846 56.5463 193.077C57.2194 193.198 57.8848 193.231 58.5422 193.173C60.3354 193.016 62.2309 192.308 64.2288 191.049C66.1669 189.796 68.0815 188.273 69.9725 186.481C71.7986 184.635 73.4752 182.802 75.0024 180.982C76.5243 179.102 77.7683 177.488 78.7344 176.138C80.2952 174.014 81.9562 172.002 83.7172 170.101C85.5328 168.135 87.5863 166.48 89.8778 165.135C92.2291 163.785 94.9887 162.972 98.1566 162.694C100.01 162.532 101.821 162.585 103.591 162.851C105.421 163.113 106.969 163.941 108.235 165.336C107.121 167.06 106.011 169.175 104.905 171.68C103.794 174.127 102.844 176.348 102.055 178.344C101.518 179.777 100.947 181.513 100.343 183.553C99.7384 185.594 99.4963 187.301 99.6166 188.676C99.7003 189.632 99.9371 190.274 100.327 190.602C100.772 190.864 101.263 190.971 101.801 190.924L102.07 190.901C103.026 190.817 103.894 190.41 104.673 189.679C105.507 188.884 106.192 188.101 106.726 187.331C107.97 185.717 109.082 183.963 110.061 182.071C111.039 180.178 112.008 178.166 112.966 176.035C113.124 175.78 113.293 175.645 113.472 175.629C113.711 175.608 113.847 175.777 113.878 176.135C113.904 176.434 113.865 176.679 113.761 176.868C112.918 178.93 111.955 181.002 110.872 183.084C109.789 185.166 108.457 187.15 106.876 189.035C106.221 189.815 105.472 190.543 104.627 191.219C103.778 191.835 102.82 192.25 101.755 192.464C101.521 192.545 101.255 192.598 100.956 192.624ZM86.2778 191.108C87.4135 191.009 88.5865 190.304 89.7969 188.993C91.0618 187.618 92.2461 186.008 93.3496 184.165C94.5077 182.257 95.5242 180.451 96.3991 178.749C97.3286 176.981 98.053 175.623 98.5723 174.674C99.6549 172.592 100.677 170.846 101.637 169.437C102.598 168.028 104.183 166.865 106.392 165.949C106.511 165.939 106.601 165.931 106.661 165.926C106.775 165.855 106.892 165.815 107.011 165.805C106.4 165.015 105.449 164.466 104.157 164.157C102.865 163.849 101.621 163.747 100.426 163.851C98.5731 164.013 96.8244 164.678 95.1799 165.846C93.5355 167.014 92.064 168.437 90.7654 170.117C88.9319 172.566 87.4077 175.109 86.1928 177.744C84.9779 180.38 84.215 182.676 83.9042 184.63C83.7435 185.548 83.7103 186.544 83.8044 187.62C83.8881 188.577 84.1133 189.43 84.4802 190.181C84.9016 190.867 85.5008 191.176 86.2778 191.108ZM116.243 191.377C114.988 191.487 113.802 191.35 112.684 190.966C111.621 190.517 110.705 189.694 109.938 188.496C109.366 187.462 109.025 186.317 108.915 185.062C108.8 183.747 108.932 182.501 109.311 181.323C109.7 180.265 110.159 179.322 110.689 178.492C111.219 177.663 111.837 177.157 112.544 176.975C112.977 175.732 113.646 174.078 114.549 172.011C115.512 169.939 116.595 167.857 117.797 165.764C119.059 163.666 120.265 161.965 121.416 160.66C121.688 160.335 122.155 159.812 122.814 159.092C123.529 158.306 124.335 157.543 125.234 156.802C126.193 156.056 127.085 155.586 127.911 155.393C128.086 155.318 128.322 155.267 128.621 155.241C129.338 155.178 129.892 155.31 130.282 155.638C130.672 155.965 130.888 156.368 130.93 156.846C130.971 157.324 130.834 157.818 130.517 158.327C130.2 158.837 129.666 159.275 128.916 159.642C128.622 159.728 128.182 159.857 127.594 160.029C127.067 160.195 126.265 160.326 125.189 160.42C124.823 161.054 124.687 161.909 124.781 162.985C124.886 164.181 125.183 165.51 125.672 166.973C126.221 168.43 126.738 169.861 127.222 171.264C127.761 172.602 128.072 173.749 128.156 174.706C128.469 176.907 128.306 179.18 127.668 181.524C127.084 183.804 125.994 185.796 124.397 187.502L123.22 188.508C123.404 188.552 123.589 188.596 123.773 188.641C123.953 188.625 124.132 188.609 124.311 188.594C125.327 188.505 126.437 188.106 127.64 187.399C128.838 186.632 129.873 185.728 130.745 184.688C132.06 183.188 133.157 181.616 134.037 179.973C134.977 178.325 135.822 176.625 136.572 174.873C136.611 174.628 136.75 174.496 136.989 174.475C137.288 174.449 137.458 174.675 137.5 175.153C137.521 175.392 137.455 175.669 137.302 175.983C136.552 177.735 135.6 179.595 134.447 181.563C133.349 183.466 132.167 185.106 130.902 186.481C129.91 187.532 128.807 188.351 127.594 188.939C126.435 189.462 125.437 189.76 124.6 189.833C124.003 189.885 123.519 189.867 123.15 189.779C122.781 189.691 122.437 189.541 122.117 189.328C121.317 189.819 120.392 190.261 119.342 190.654C118.352 191.042 117.319 191.283 116.243 191.377ZM119.446 188.748C120.569 187.807 121.401 186.65 121.943 185.277C122.546 183.9 122.961 182.448 123.188 180.922C123.51 179.087 123.617 177.211 123.509 175.293C123.461 173.37 123.369 171.631 123.233 170.077L122.959 166.939C122.849 165.684 122.886 164.386 123.07 163.044C123.313 161.698 123.602 160.86 123.934 160.53C123.069 160.967 122.153 161.86 121.187 163.209C120.216 164.499 119.265 166.027 118.336 167.795C117.401 169.503 116.554 171.173 115.793 172.806C115.092 174.433 114.547 175.776 114.158 176.834C115.288 176.675 116.094 176.935 116.575 177.616C117.051 178.237 117.212 178.705 117.059 179.019C116.571 178.941 116.237 178.91 116.057 178.926C115.161 179.005 114.353 179.407 113.633 180.132C112.909 180.798 112.329 181.752 111.896 182.994C111.458 184.177 111.285 185.306 111.379 186.382C111.505 187.817 112.015 188.826 112.909 189.41C113.803 189.995 114.818 190.237 115.954 190.138C117.269 190.023 118.433 189.56 119.446 188.748ZM141.391 189.087C139.897 189.218 138.516 188.917 137.247 188.185C136.033 187.387 135.34 186.002 135.167 184.03C134.984 181.938 135.291 179.592 136.087 176.993C136.884 174.394 137.644 172.069 138.368 170.018C138.762 169.02 139.278 167.68 139.913 165.998C140.604 164.251 141.357 162.529 142.172 160.831L137.958 161.2C137.778 161.216 137.676 161.074 137.65 160.775C137.629 160.536 137.697 160.289 137.856 160.034C138.009 159.72 138.205 159.552 138.444 159.531C140.118 159.385 141.36 159.125 142.171 158.753C142.981 158.381 143.662 157.9 144.213 157.31C145.096 156.389 145.928 155.233 146.71 153.839C147.551 152.44 148.378 151.224 149.191 150.189C149.775 149.295 150.527 148.596 151.447 148.094C152.426 147.587 153.071 147.38 153.38 147.474C153.118 147.918 152.702 148.677 152.134 149.751C151.565 150.824 150.975 151.99 150.362 153.249C149.749 154.507 149.189 155.67 148.68 156.738C148.171 157.807 147.843 158.528 147.695 158.903L153.612 158.385C153.791 158.369 153.886 158.421 153.897 158.541C153.918 158.78 153.792 159.062 153.519 159.387C153.306 159.707 153.08 159.877 152.841 159.898L147.013 160.408C146.099 162.355 145.026 164.888 143.793 168.007C142.615 171.062 141.578 174.013 140.683 176.862C140.491 177.421 140.167 178.533 139.71 180.199C139.314 181.86 139.175 183.378 139.296 184.753C139.374 185.65 139.619 186.381 140.03 186.947C140.5 187.508 141.214 187.747 142.17 187.663C143.186 187.575 144.261 187.119 145.393 186.297C146.521 185.416 147.379 184.558 147.969 183.723C149.213 182.109 150.324 180.355 151.303 178.462C152.282 176.57 153.25 174.558 154.208 172.426C154.366 172.172 154.535 172.036 154.715 172.021C154.954 172 155.089 172.169 155.12 172.527C155.146 172.826 155.108 173.07 155.004 173.26C154.1 175.327 153.107 177.401 152.025 179.483C151.002 181.561 149.7 183.542 148.118 185.427C147.409 186.272 146.426 187.08 145.168 187.853C143.906 188.566 142.647 188.977 141.391 189.087ZM163.669 187.228C160.202 187.531 157.673 186.849 156.081 185.182C155.296 184.467 154.707 183.585 154.314 182.536C153.921 181.486 153.675 180.393 153.576 179.257C153.45 177.823 153.504 176.373 153.737 174.907C153.965 173.381 154.293 171.967 154.721 170.665C155.385 168.619 156.318 166.55 157.521 164.457C158.718 162.305 160.212 160.457 162.005 158.915C163.857 157.368 165.948 156.492 168.28 156.288C169.834 156.153 171.093 156.434 172.058 157.132C173.022 157.831 173.575 158.987 173.716 160.601C173.878 162.454 173.475 164.386 172.507 166.399C171.533 168.351 170.235 170.03 168.611 171.437C166.988 172.844 165.249 173.629 163.396 173.791C161.723 173.937 160.206 173.468 158.846 172.382C158.571 173.37 158.367 174.472 158.232 175.688C158.092 176.845 158.075 178.021 158.179 179.216C158.342 181.069 158.841 182.651 159.679 183.963C160.576 185.27 162.011 185.837 163.984 185.665C165.418 185.539 166.761 185.06 168.014 184.228C169.32 183.331 170.465 182.297 171.446 181.127C172.532 179.767 173.55 178.323 174.5 176.794C175.451 175.266 176.35 173.501 177.199 171.499C177.303 171.309 177.385 171.212 177.445 171.206C177.684 171.186 177.827 171.444 177.874 171.982C177.905 172.341 177.82 172.74 177.617 173.179C176.862 174.871 175.96 176.606 174.911 178.385C173.856 180.103 172.754 181.615 171.603 182.92C170.562 184.095 169.412 185.069 168.155 185.842C166.897 186.614 165.402 187.076 163.669 187.228ZM159.177 170.998C159.648 171.559 160.165 171.965 160.729 172.217C161.348 172.404 161.956 172.471 162.554 172.419C163.988 172.293 165.435 171.625 166.895 170.413C168.35 169.141 169.49 167.716 170.316 166.139C170.677 165.444 170.96 164.546 171.164 163.444C171.429 162.337 171.519 161.305 171.435 160.349C171.362 159.512 171.12 158.811 170.709 158.244C170.353 157.613 169.697 157.339 168.74 157.423C167.664 157.517 166.437 158.287 165.057 159.732C163.738 161.173 162.512 162.997 161.38 165.204C161.025 165.958 160.62 166.836 160.165 167.84C159.771 168.838 159.441 169.891 159.177 170.998ZM183.083 185.349C180.932 185.537 179.382 185.04 178.436 183.858C177.489 182.676 176.932 181.129 176.765 179.216C176.592 177.244 176.703 175.066 177.097 172.682C177.55 170.294 178.099 167.957 178.742 165.672C179.445 163.382 180.112 161.367 180.742 159.625C181.433 157.878 181.899 156.663 182.14 155.979C183.017 153.614 184.107 150.929 185.41 147.924C186.773 144.913 188.31 141.828 190.021 138.667C191.792 135.5 193.665 132.475 195.642 129.592C197.678 126.704 199.805 124.169 202.023 121.987C204.301 119.8 206.604 118.244 208.932 117.317C209.574 117.08 210.164 116.938 210.702 116.891C211.718 116.802 212.581 117.028 213.291 117.568C214.055 118.043 214.497 118.968 214.618 120.343C214.701 121.299 214.567 122.516 214.214 123.992C213.62 126.152 212.509 128.598 210.881 131.331C209.248 134.003 207.296 136.824 205.026 139.793C202.751 142.702 200.324 145.595 197.745 148.471C195.226 151.341 192.75 154.027 190.319 156.529C187.888 159.03 185.727 161.176 183.836 162.968C183.397 164.151 182.986 165.301 182.602 166.419C182.277 167.531 181.98 168.611 181.711 169.659C181.578 170.212 181.38 171.043 181.116 172.15C180.851 173.257 180.627 174.482 180.443 175.823C180.259 177.164 180.22 178.432 180.324 179.628C180.429 180.823 180.759 181.848 181.316 182.703C181.867 183.498 182.771 183.84 184.026 183.731C185.042 183.642 185.94 183.232 186.719 182.501C187.558 181.765 188.302 180.977 188.952 180.138C191.211 177.049 193.162 173.535 194.805 169.597C195.008 169.158 195.169 168.933 195.288 168.923C195.408 168.912 195.483 169.086 195.515 169.445C195.562 169.983 195.492 170.561 195.305 171.18C194.352 173.371 193.461 175.226 192.63 176.744C191.859 178.257 190.682 179.956 189.101 181.841C188.392 182.686 187.525 183.455 186.502 184.146C185.538 184.833 184.398 185.234 183.083 185.349ZM184.641 160.82C186.353 159.044 188.338 156.943 190.595 154.517C192.847 152.031 195.145 149.391 197.491 146.596C199.836 143.801 202.032 141.019 204.078 138.25C206.185 135.476 207.975 132.88 209.45 130.462C210.985 128.039 211.978 125.965 212.429 124.239C212.831 122.638 212.995 121.419 212.922 120.582C212.786 119.028 212.031 118.311 210.656 118.431C209.879 118.499 208.979 118.879 207.955 119.571C206.926 120.203 206.003 121.006 205.185 121.981C203.816 123.547 202.233 125.763 200.436 128.631C198.694 131.433 196.866 134.635 194.952 138.235C193.039 141.836 191.168 145.583 189.341 149.477C187.573 153.366 186.007 157.147 184.641 160.82ZM226.064 192.61C225.406 192.668 224.472 192.659 223.261 192.585C222.055 192.57 220.948 192.305 219.939 191.791C218.93 191.277 218.374 190.422 218.269 189.227C218.212 188.569 218.339 187.956 218.65 187.387C218.923 187.062 219.176 186.859 219.41 186.778C219.589 186.763 219.662 186.907 219.629 187.211C219.468 188.128 219.84 188.939 220.745 189.643C221.595 190.412 222.449 190.879 223.307 191.045C224.284 191.2 225.311 191.231 226.387 191.137C228.837 190.922 231.024 190.099 232.946 188.666C234.874 187.292 236.561 185.579 238.007 183.525C239.519 181.526 240.848 179.512 241.996 177.484C244.652 172.735 246.999 167.892 249.037 162.955C251.069 157.959 253.134 152.99 255.231 148.049C257.328 143.107 259.74 138.319 262.467 133.684C263.357 132.16 264.471 130.436 265.809 128.513C267.141 126.529 268.63 124.622 270.277 122.791C271.924 120.961 273.662 119.484 275.491 118.36C274.714 118.428 274.053 118.456 273.51 118.443C272.967 118.43 272.065 118.449 270.805 118.499C268.458 118.524 265.76 118.669 262.712 118.936C261.039 119.082 259.397 119.256 257.789 119.457C256.235 119.593 254.776 119.781 253.411 120.021C248.536 120.748 243.716 122.104 238.951 124.087C234.245 126.064 230.297 128.789 227.108 132.26C225.238 134.291 223.747 136.529 222.636 138.975C221.525 141.421 221.069 143.78 221.268 146.051C221.493 148.622 222.342 150.414 223.816 151.43C225.345 152.38 227.065 152.772 228.978 152.604C230.472 152.474 231.943 152.074 233.39 151.405C236.23 150.133 238.464 148.13 240.092 145.398C241.775 142.601 242.356 139.599 241.834 136.392C241.727 135.859 241.561 135.332 241.334 134.81C241.108 134.287 240.837 133.95 240.523 133.796C240.268 133.638 240.133 133.469 240.117 133.29C240.161 133.105 240.333 133 240.632 132.974C241.957 132.978 242.919 133.647 243.517 134.98C244.17 136.248 244.549 137.48 244.654 138.675C244.816 140.528 244.495 142.363 243.69 144.18C242.88 145.937 241.755 147.541 240.316 148.992C238.932 150.378 237.402 151.476 235.726 152.285C233.936 153.164 231.995 153.695 229.903 153.879C227.153 154.119 224.664 153.554 222.437 152.183C220.268 150.807 219.03 148.355 218.721 144.829C218.491 142.199 218.902 139.663 219.953 137.222C221.064 134.776 222.465 132.546 224.156 130.531C227.815 126.235 232.212 123.14 237.347 121.246C242.541 119.346 247.888 118.155 253.387 117.674C257.69 117.297 262.015 117.16 266.36 117.262C270.7 117.304 274.992 117.139 279.236 116.768L281.567 116.564C281.871 116.597 282.151 116.693 282.405 116.852C282.715 116.945 282.823 117.146 282.729 117.456C282.761 117.814 282.567 118.012 282.149 118.049C281.312 118.122 280.665 118.299 280.208 118.58C278.989 119.108 277.981 119.979 277.184 121.193C276.381 122.348 275.63 123.738 274.929 125.366C273.971 127.497 273.493 129.948 273.494 132.719C273.55 135.424 273.648 137.915 273.787 140.192C274.004 143.365 274.172 146.663 274.291 150.085C274.47 153.503 274.254 156.894 273.645 160.26C273.213 162.888 272.438 165.395 271.322 167.781C270.266 170.163 268.802 172.369 266.932 174.399C268.434 173.666 269.889 172.394 271.296 170.584C272.704 168.775 274.009 166.824 275.211 164.731C276.473 162.633 277.492 160.857 278.268 159.404C280.493 155.234 282.804 150.666 285.2 145.698C287.656 140.725 290.237 135.801 292.942 130.927C295.642 125.993 298.509 121.586 301.543 117.707C304.194 114.283 306.862 111.731 309.546 110.05C312.289 108.365 314.827 107.42 317.158 107.216C319.19 107.038 320.998 107.392 322.581 108.278C324.159 109.103 325.325 110.386 326.08 112.127C326.085 112.187 326.09 112.247 326.096 112.307C326.155 112.301 326.188 112.329 326.193 112.388C326.23 112.807 326.041 113.064 325.628 113.161C325.215 113.257 324.941 113.221 324.806 113.052C324.053 110.648 322.392 109.559 319.822 109.784C318.148 109.93 316.144 110.768 313.808 112.297C311.472 113.827 308.881 116.222 306.035 119.482C303.079 122.873 300.203 126.829 297.406 131.349C294.609 135.87 291.883 140.506 289.227 145.255C286.631 150 284.011 154.475 281.367 158.681C280.417 160.21 279.194 162.064 277.698 164.242C276.262 166.416 274.646 168.605 272.852 170.81C271.052 172.955 269.193 174.774 267.276 176.266C265.354 177.699 263.461 178.437 261.597 178.48C261.239 178.511 261.019 178.41 260.938 178.176C260.918 177.937 261.049 177.715 261.332 177.509C263.239 175.897 264.715 173.84 265.761 171.34C266.807 168.839 267.596 166.15 268.127 163.273C268.803 159.299 269.115 155.296 269.064 151.265C269.072 147.229 269.17 143.185 269.358 139.134C269.495 137.255 269.683 135.281 269.924 133.212C270.219 131.078 270.771 129.132 271.581 127.375C272.238 125.932 273.183 124.344 274.417 122.61C275.65 120.876 277.073 119.577 278.683 118.713C277.646 118.563 276.512 119.024 275.281 120.095C274.109 121.161 272.964 122.526 271.845 124.19C270.72 125.794 269.713 127.358 268.822 128.881C267.991 130.4 267.395 131.506 267.035 132.2C264.563 136.993 262.349 141.975 260.392 147.146C258.495 152.311 256.533 157.421 254.506 162.477C252.479 167.533 250.04 172.354 247.188 176.94C245.659 179.422 243.88 181.807 241.851 184.092C239.828 186.437 237.614 188.318 235.208 189.733C233.781 190.64 232.274 191.314 230.687 191.754C229.159 192.189 227.618 192.475 226.064 192.61ZM298.172 179.345C295.901 179.544 294.015 178.986 292.515 177.672C291.074 176.353 290.231 174.288 289.985 171.479C289.799 168.664 290.024 165.724 290.659 162.657C291.354 159.584 292.29 156.521 293.469 153.467C294.702 150.347 295.977 147.375 297.296 144.549C300.294 138.204 303.353 132.546 306.472 127.575C309.65 122.599 312.206 118.43 314.141 115.069C314.294 114.754 314.612 114.606 315.096 114.624C315.574 114.582 315.706 114.721 315.493 115.041C313.375 118.358 311.288 122.395 309.235 127.153C307.237 131.845 305.18 136.903 303.064 142.328C302.724 143.261 302.195 144.783 301.476 146.894C300.812 148.94 300.084 151.292 299.293 153.951C298.562 156.605 297.86 159.256 297.188 161.905C296.511 164.494 296.02 166.795 295.714 168.809C295.603 169.602 295.519 170.362 295.462 171.09C295.4 171.758 295.398 172.421 295.456 173.078C295.581 174.513 295.979 175.622 296.65 176.407C297.386 177.246 298.412 177.608 299.727 177.493C301.101 177.373 302.508 176.587 303.947 175.136C305.391 173.745 306.78 172.057 308.112 170.074C309.291 168.405 310.342 166.656 311.267 164.829C312.251 162.996 313.041 161.361 313.638 159.923C313.906 159.539 314.099 159.341 314.219 159.331C314.398 159.315 314.501 159.457 314.527 159.755C314.558 160.114 314.475 160.543 314.278 161.042C313.681 162.479 312.866 164.177 311.833 166.134C310.794 168.032 309.601 169.883 308.253 171.688C306.742 173.687 305.117 175.425 303.379 176.902C301.641 178.379 299.905 179.194 298.172 179.345ZM334.203 172.218C332.291 172.385 330.923 171.903 330.102 170.77C329.274 169.577 328.796 168.234 328.665 166.74C328.639 166.441 328.624 165.93 328.621 165.208C328.673 164.42 328.73 163.693 328.792 163.025C328.054 164.233 327.148 165.578 326.073 167.057C325.057 168.531 323.994 169.799 322.882 170.859C321.105 172.581 319.44 173.51 317.886 173.646C316.391 173.776 315.171 173.251 314.224 172.069C313.337 170.881 312.81 169.331 312.643 167.419C312.429 164.968 312.75 162.441 313.606 159.836C314.462 157.231 315.66 154.748 317.2 152.384C318.795 149.956 320.597 147.841 322.608 146.039C323.784 145.033 325.246 144.182 326.992 143.487C328.793 142.727 330.619 142.266 332.472 142.104C334.564 141.921 336.416 142.09 338.028 142.612C339.694 143.068 340.875 143.838 341.572 144.922C340.458 146.645 339.348 148.76 338.243 151.266C337.132 153.712 336.182 155.934 335.393 157.93C334.85 159.302 334.277 161.009 333.672 163.049C333.063 165.03 332.818 166.708 332.938 168.082C332.99 168.68 333.192 169.265 333.543 169.836C333.894 170.408 334.488 170.657 335.325 170.584C336.282 170.5 337.177 170.061 338.01 169.265C338.844 168.469 339.529 167.687 340.064 166.917C341.308 165.302 342.419 163.549 343.398 161.656C344.377 159.764 345.345 157.752 346.303 155.62C346.461 155.365 346.63 155.23 346.809 155.215C347.048 155.194 347.184 155.362 347.215 155.721C347.241 156.02 347.202 156.264 347.099 156.454C346.255 158.515 345.292 160.587 344.209 162.67C343.127 164.752 341.794 166.735 340.213 168.62C339.449 169.53 338.526 170.334 337.442 171.031C336.359 171.728 335.279 172.124 334.203 172.218ZM319.615 170.694C320.751 170.594 321.924 169.889 323.134 168.579C324.399 167.203 325.583 165.594 326.687 163.751C327.845 161.843 328.861 160.037 329.736 158.334C330.666 156.567 331.39 155.208 331.909 154.259C332.992 152.177 334.014 150.432 334.975 149.022C335.936 147.613 337.52 146.451 339.729 145.535C339.848 145.524 339.938 145.516 339.998 145.511C340.112 145.441 340.229 145.401 340.349 145.39C339.737 144.6 338.786 144.051 337.494 143.743C336.202 143.434 334.959 143.332 333.763 143.437C331.91 143.599 330.162 144.264 328.517 145.432C326.873 146.599 325.401 148.023 324.103 149.703C322.869 151.437 321.678 153.318 320.531 155.345C319.383 157.373 318.477 159.41 317.813 161.455C317.209 163.496 316.985 165.413 317.142 167.206C317.225 168.162 317.451 169.016 317.817 169.767C318.239 170.453 318.838 170.762 319.615 170.694ZM363.641 169.552C361.908 169.704 360.486 169.286 359.376 168.299C358.325 167.307 357.729 166.004 357.588 164.39C357.52 163.613 357.591 162.703 357.801 161.661C358.408 158.958 359.495 156.243 361.064 153.516C362.686 150.724 363.983 147.99 364.954 145.315C365.299 144.442 365.443 143.677 365.385 143.019C365.328 142.362 365.077 141.902 364.632 141.64C364.242 141.312 363.778 141.172 363.24 141.219C362.463 141.287 361.506 141.702 360.368 142.464C359.284 143.161 358.071 144.442 356.729 146.306C355.926 147.46 355.025 148.864 354.025 150.518C353.026 152.171 352.222 153.657 351.615 154.975C350.597 157.112 349.702 159.268 348.928 161.444C348.15 163.559 347.478 165.515 346.912 167.312C346.435 168.739 345.796 169.698 344.996 170.19C344.19 170.621 343.396 170.841 342.614 170.85C341.832 170.858 341.234 170.91 340.821 171.007C342.207 167.573 343.547 163.962 344.842 160.175C346.137 156.388 347.193 152.621 348.009 148.876C348.401 147.155 348.708 145.502 348.931 143.917C349.148 142.271 349.206 141.212 349.105 140.739L349.089 140.56C349.047 140.082 349.276 139.941 349.775 140.139C350.588 140.489 351.181 141.07 351.553 141.88C351.92 142.631 352.148 143.515 352.237 144.531C352.336 145.666 352.294 146.905 352.11 148.246C351.921 149.527 351.662 150.694 351.332 151.747C352.015 150.603 352.758 149.454 353.56 148.3C354.358 147.086 355.25 145.924 356.237 144.813C357.382 143.448 358.633 142.255 359.989 141.233C361.34 140.151 362.852 139.537 364.526 139.39C366.139 139.249 367.336 139.506 368.116 140.16C368.956 140.809 369.428 141.732 369.533 142.927C369.643 144.182 369.41 145.648 368.834 147.325C368.219 149.246 367.424 151.182 366.451 153.135C365.537 155.082 364.708 156.961 363.963 158.773C363.815 159.147 363.566 159.741 363.215 160.555C362.919 161.304 362.661 162.139 362.441 163.062C362.358 163.491 362.278 163.95 362.2 164.438C362.117 164.867 362.096 165.321 362.138 165.799C362.19 166.397 362.36 166.954 362.646 167.471C362.987 167.923 363.545 168.115 364.322 168.047C365.339 167.958 366.266 167.546 367.105 166.81C367.999 166.009 368.74 165.191 369.33 164.357C370.574 162.742 371.685 160.988 372.664 159.096C373.697 157.138 374.693 155.094 375.651 152.962C375.809 152.707 375.918 152.577 375.978 152.572C376.217 152.551 376.36 152.81 376.407 153.348C376.439 153.706 376.402 153.981 376.299 154.17C375.395 156.237 374.43 158.279 373.401 160.296C372.368 162.254 371.061 164.175 369.479 166.06C368.77 166.905 367.933 167.671 366.97 168.357C366.006 169.044 364.896 169.442 363.641 169.552ZM378.898 168.217C377.225 168.364 375.952 167.933 375.081 166.925C374.205 165.857 373.696 164.517 373.555 162.903C373.513 162.425 373.501 161.944 373.519 161.46C373.591 160.912 373.664 160.364 373.736 159.815C374.185 157.367 374.968 154.618 376.087 151.569C377.26 148.455 378.402 145.675 379.513 143.229C380.175 141.846 380.811 140.856 381.421 140.261C382.026 139.606 382.707 139.125 383.463 138.818C384.214 138.451 385.112 138.041 386.156 137.588C386.445 137.442 386.736 137.327 387.029 137.241C387.323 137.155 387.647 137.066 388 136.975C386.909 138.275 385.809 139.817 384.7 141.6C383.651 143.378 382.538 145.795 381.36 148.849C380.718 150.471 380.093 152.272 379.483 154.253C378.933 156.229 378.463 158.077 378.071 159.797C377.68 161.518 377.496 162.859 377.52 163.821C377.559 164.962 377.779 165.755 378.18 166.202C378.58 166.649 379.079 166.846 379.677 166.794C380.693 166.705 381.618 166.263 382.452 165.467C383.346 164.666 384.117 163.846 384.766 163.006C385.951 161.397 387.032 159.646 388.011 157.753C389.049 155.855 390.048 153.841 391.006 151.709C391.164 151.454 391.303 151.322 391.422 151.311C391.662 151.29 391.797 151.459 391.828 151.818C391.854 152.117 391.815 152.361 391.712 152.551C390.808 154.617 389.845 156.689 388.822 158.766C387.799 160.843 386.497 162.824 384.915 164.709C384.206 165.555 383.34 166.323 382.316 167.015C381.353 167.701 380.213 168.102 378.898 168.217ZM386.754 132.025C386.096 132.082 385.508 131.893 384.987 131.457C384.527 131.015 384.268 130.466 384.211 129.808C384.138 128.971 384.401 128.195 385.001 127.48C385.661 126.76 386.404 126.304 387.23 126.111C387.888 126.053 388.446 126.245 388.907 126.687C389.421 127.064 389.71 127.61 389.773 128.328C389.841 129.105 389.58 129.911 388.991 130.745C388.396 131.52 387.65 131.946 386.754 132.025ZM410.903 165.508C408.99 165.675 407.623 165.192 406.801 164.06C405.974 162.867 405.495 161.524 405.364 160.029C405.338 159.731 405.323 159.22 405.32 158.497C405.372 157.71 405.429 156.982 405.491 156.314C404.753 157.523 403.847 158.867 402.772 160.347C401.756 161.821 400.693 163.088 399.581 164.149C397.804 165.871 396.139 166.799 394.585 166.935C393.091 167.066 391.87 166.54 390.924 165.358C390.037 164.171 389.51 162.621 389.342 160.708C389.128 158.258 389.449 155.73 390.305 153.126C391.161 150.521 392.359 148.037 393.899 145.674C395.494 143.246 397.296 141.131 399.307 139.329C400.484 138.322 401.945 137.472 403.691 136.777C405.492 136.017 407.318 135.556 409.171 135.394C411.263 135.211 413.115 135.38 414.727 135.902C416.393 136.358 417.575 137.128 418.272 138.211C417.158 139.935 416.048 142.05 414.942 144.556C413.831 147.002 412.881 149.223 412.092 151.22C411.549 152.592 410.976 154.299 410.371 156.339C409.762 158.32 409.517 159.997 409.637 161.372C409.69 161.97 409.891 162.554 410.243 163.126C410.594 163.698 411.188 163.947 412.024 163.874C412.981 163.79 413.876 163.35 414.71 162.555C415.544 161.759 416.228 160.976 416.763 160.207C418.007 158.592 419.118 156.839 420.097 154.946C421.076 153.054 422.044 151.041 423.002 148.91C423.16 148.655 423.329 148.52 423.509 148.504C423.748 148.483 423.883 148.652 423.914 149.011C423.94 149.31 423.902 149.554 423.798 149.744C422.954 151.805 421.991 153.877 420.908 155.959C419.826 158.041 418.494 160.025 416.912 161.91C416.148 162.82 415.225 163.624 414.141 164.321C413.058 165.018 411.978 165.413 410.903 165.508ZM396.314 163.983C397.45 163.884 398.623 163.179 399.833 161.868C401.098 160.493 402.282 158.884 403.386 157.04C404.544 155.132 405.561 153.327 406.436 151.624C407.365 149.856 408.089 148.498 408.609 147.549C409.691 145.467 410.713 143.721 411.674 142.312C412.635 140.903 414.219 139.74 416.428 138.824C416.548 138.814 416.637 138.806 416.697 138.801C416.811 138.731 416.928 138.69 417.048 138.68C416.437 137.89 415.485 137.341 414.193 137.032C412.902 136.724 411.658 136.622 410.462 136.726C408.61 136.889 406.861 137.553 405.216 138.721C403.572 139.889 402.1 141.313 400.802 142.992C399.568 144.726 398.378 146.607 397.23 148.635C396.082 150.663 395.176 152.699 394.512 154.745C393.908 156.786 393.684 158.702 393.841 160.496C393.925 161.452 394.15 162.306 394.517 163.056C394.938 163.742 395.537 164.051 396.314 163.983Z" fill="#920303"/>
<path d="M342.08 226.28C340.8 226.76 339.44 227 338 227C336.56 227 335.3 226.54 334.22 225.62C333.18 224.7 332.66 223.44 332.66 221.84C332.66 220.24 332.86 217.18 333.26 212.66C333.66 208.1 333.86 204.46 333.86 201.74C333.86 194.74 333.44 189.2 332.6 185.12C333.88 184.64 335.24 184.4 336.68 184.4C338.12 184.4 339.36 184.86 340.4 185.78C341.48 186.7 342.02 187.84 342.02 189.2C342.02 190.52 341.96 191.8 341.84 193.04C341.76 194.28 341.64 195.7 341.48 197.3C341.32 198.9 341.2 200.3 341.12 201.5C342.72 201.66 345.48 201.74 349.4 201.74C353.32 201.74 356.34 201.58 358.46 201.26C358.46 194.9 358.04 189.4 357.2 184.76C358.48 184.28 359.84 184.04 361.28 184.04C362.72 184.04 363.96 184.5 365 185.42C366.08 186.34 366.62 187.62 366.62 189.26C366.62 190.86 366.42 193.72 366.02 197.84C365.62 201.96 365.42 205.26 365.42 207.74C365.42 215.58 365.84 221.88 366.68 226.64C365.4 227.12 364.04 227.36 362.6 227.36C361.16 227.36 359.9 226.9 358.82 225.98C357.78 225.06 357.26 223.84 357.26 222.32C357.26 220.8 357.42 218.32 357.74 214.88C358.06 211.44 358.26 209.08 358.34 207.8C354.42 207.52 348.58 207.38 340.82 207.38V208.94C340.82 216.02 341.24 221.8 342.08 226.28ZM374.089 220.88L374.689 208.4C374.689 204.52 374.129 200.84 373.009 197.36C374.129 196.88 375.509 196.64 377.149 196.64C380.349 196.64 381.949 198.42 381.949 201.98C381.949 203.98 381.729 206.8 381.289 210.44C380.849 214.04 380.629 216.66 380.629 218.3C380.629 220.3 381.529 221.3 383.329 221.3C384.409 221.3 385.669 220.4 387.109 218.6C388.589 216.76 389.849 214.72 390.889 212.48C391.969 210.2 392.609 208.34 392.809 206.9C392.569 202.5 392.229 199.32 391.789 197.36C393.069 196.88 394.369 196.64 395.689 196.64C397.049 196.64 398.169 197.06 399.049 197.9C399.969 198.74 400.429 199.78 400.429 201.02C400.429 202.26 400.249 204.32 399.889 207.2C399.529 210.08 399.349 213.1 399.349 216.26C399.349 219.38 399.709 222.72 400.429 226.28C398.869 226.76 397.469 227 396.229 227C393.749 227 392.509 225.36 392.509 222.08C392.509 220.64 392.669 218.64 392.989 216.08C391.389 219.48 389.429 222.22 387.109 224.3C384.829 226.34 382.509 227.36 380.149 227.36C376.109 227.36 374.089 225.2 374.089 220.88ZM452.374 202.76L451.774 215.6C451.774 219.48 452.334 223.16 453.454 226.64C452.334 227.12 451.054 227.36 449.614 227.36C446.214 227.36 444.514 225.46 444.514 221.66C444.514 219.94 444.734 217.06 445.174 213.02C445.614 208.94 445.834 206.38 445.834 205.34C445.834 203.34 445.014 202.34 443.374 202.34C441.574 202.34 439.414 204.18 436.894 207.86C434.414 211.54 433.174 214.42 433.174 216.5C433.374 219.66 433.934 222.8 434.854 225.92C433.334 226.4 432.054 226.64 431.014 226.64C427.614 226.64 425.914 224.74 425.914 220.94C425.914 219.34 426.134 216.66 426.574 212.9C427.014 209.14 427.234 206.78 427.234 205.82C427.234 203.82 426.334 202.82 424.534 202.82C423.294 202.82 421.874 203.74 420.274 205.58C418.674 207.42 417.314 209.46 416.194 211.7C415.114 213.9 414.534 215.66 414.454 216.98C414.654 220.42 415.054 223.52 415.654 226.28C414.374 226.76 413.034 227 411.634 227C410.274 227 409.154 226.68 408.274 226.04C407.434 225.36 407.014 224.44 407.014 223.28C407.014 222.08 407.194 219.96 407.554 216.92C407.914 213.84 408.094 210.8 408.094 207.8C408.094 204.76 407.634 201.28 406.714 197.36C407.994 196.88 409.354 196.64 410.794 196.64C412.234 196.64 413.394 197.06 414.274 197.9C415.194 198.74 415.654 199.86 415.654 201.26C415.654 201.98 415.514 203.74 415.234 206.54C416.714 203.9 418.594 201.62 420.874 199.7C423.154 197.74 425.434 196.76 427.714 196.76C431.754 196.76 433.774 198.92 433.774 203.24C433.774 204.32 433.714 205.52 433.594 206.84C435.074 204.04 436.974 201.58 439.294 199.46C441.654 197.34 443.994 196.28 446.314 196.28C450.354 196.28 452.374 198.44 452.374 202.76ZM505.401 202.76L504.801 215.6C504.801 219.48 505.361 223.16 506.481 226.64C505.361 227.12 504.081 227.36 502.641 227.36C499.241 227.36 497.541 225.46 497.541 221.66C497.541 219.94 497.761 217.06 498.201 213.02C498.641 208.94 498.861 206.38 498.861 205.34C498.861 203.34 498.041 202.34 496.401 202.34C494.601 202.34 492.441 204.18 489.921 207.86C487.441 211.54 486.201 214.42 486.201 216.5C486.401 219.66 486.961 222.8 487.881 225.92C486.361 226.4 485.081 226.64 484.041 226.64C480.641 226.64 478.941 224.74 478.941 220.94C478.941 219.34 479.161 216.66 479.601 212.9C480.041 209.14 480.261 206.78 480.261 205.82C480.261 203.82 479.361 202.82 477.561 202.82C476.321 202.82 474.901 203.74 473.301 205.58C471.701 207.42 470.341 209.46 469.221 211.7C468.141 213.9 467.561 215.66 467.481 216.98C467.681 220.42 468.081 223.52 468.681 226.28C467.401 226.76 466.061 227 464.661 227C463.301 227 462.181 226.68 461.301 226.04C460.461 225.36 460.041 224.44 460.041 223.28C460.041 222.08 460.221 219.96 460.581 216.92C460.941 213.84 461.121 210.8 461.121 207.8C461.121 204.76 460.661 201.28 459.741 197.36C461.021 196.88 462.381 196.64 463.821 196.64C465.261 196.64 466.421 197.06 467.301 197.9C468.221 198.74 468.681 199.86 468.681 201.26C468.681 201.98 468.541 203.74 468.261 206.54C469.741 203.9 471.621 201.62 473.901 199.7C476.181 197.74 478.461 196.76 480.741 196.76C484.781 196.76 486.801 198.92 486.801 203.24C486.801 204.32 486.741 205.52 486.621 206.84C488.101 204.04 490.001 201.58 492.321 199.46C494.681 197.34 497.021 196.28 499.341 196.28C503.381 196.28 505.401 198.44 505.401 202.76ZM513.549 218.96C514.829 218.28 516.129 217.94 517.449 217.94C520.409 217.94 521.889 219.32 521.889 222.08C521.889 223.56 521.389 224.82 520.389 225.86C519.389 226.86 518.189 227.36 516.789 227.36C515.389 227.36 514.309 226.96 513.549 226.16C512.829 225.36 512.469 224.28 512.469 222.92C512.469 221.52 512.829 220.2 513.549 218.96ZM528.959 218.96C530.239 218.28 531.539 217.94 532.859 217.94C535.819 217.94 537.299 219.32 537.299 222.08C537.299 223.56 536.799 224.82 535.799 225.86C534.799 226.86 533.599 227.36 532.199 227.36C530.799 227.36 529.719 226.96 528.959 226.16C528.239 225.36 527.879 224.28 527.879 222.92C527.879 221.52 528.239 220.2 528.959 218.96ZM544.369 218.96C545.649 218.28 546.949 217.94 548.269 217.94C551.229 217.94 552.709 219.32 552.709 222.08C552.709 223.56 552.209 224.82 551.209 225.86C550.209 226.86 549.009 227.36 547.609 227.36C546.209 227.36 545.129 226.96 544.369 226.16C543.649 225.36 543.289 224.28 543.289 222.92C543.289 221.52 543.649 220.2 544.369 218.96Z" fill="#FFBB49"/>
</svg>
